<svg id="Layer_2" data-name="Layer 2" xmlns="http://www.w3.org/2000/svg" xmlns:xlink="http://www.w3.org/1999/xlink" viewBox="0 0 1785.69 422.51"><defs><style>.cls-1{fill:none;}.cls-2{fill:#cfe2ff;}.cls-3{fill:#fff;}.cls-4{opacity:0.2;}.cls-5{fill:url(#New_Pattern);}.cls-6{fill:#0d6efd;}</style><pattern id="New_Pattern" data-name="New Pattern" width="100" height="120" patternUnits="userSpaceOnUse" viewBox="0 0 100 120"><rect class="cls-1" width="100" height="120"/><path class="cls-2" d="M76.6,97.05H88.89L73.59,143H58.29l14.34-43A4.2,4.2,0,0,1,76.6,97.05Z"/><polygon class="cls-2" points="100 97.05 115.3 97.05 100 142.95 84.7 142.95 100 97.05"/><polygon class="cls-2" points="0 97.05 15.3 97.05 0 142.95 -15.3 142.95 0 97.05"/><path class="cls-2" d="M26.41,97.05h15.3l-14.34,43a4.18,4.18,0,0,1-4,2.86H11.12Z"/><path class="cls-2" d="M26.6,37.05H38.89L23.59,83H8.29l14.34-43A4.2,4.2,0,0,1,26.6,37.05Z"/><polygon class="cls-2" points="50 37.05 65.3 37.05 50 82.95 34.7 82.95 50 37.05"/><path class="cls-2" d="M76.41,37.05h15.3l-14.34,43a4.18,4.18,0,0,1-4,2.86H61.12Z"/><path class="cls-2" d="M76.6-22.95H88.89L73.59,23H58.29l14.34-43A4.2,4.2,0,0,1,76.6-22.95Z"/><polygon class="cls-2" points="100 -22.95 115.3 -22.95 100 22.95 84.7 22.95 100 -22.95"/><polygon class="cls-2" points="0 -22.95 15.3 -22.95 0 22.95 -15.3 22.95 0 -22.95"/><path class="cls-2" d="M26.41-22.95h15.3l-14.34,43a4.18,4.18,0,0,1-4,2.86H11.12Z"/></pattern></defs><rect class="cls-3" width="1785.69" height="422.51"/><g class="cls-4"><rect class="cls-5" width="1785.69" height="422.51"/></g><rect class="cls-6" x="863.87" y="117.25" width="679.79" height="43.05" rx="21.52"/><path class="cls-6" d="M312.2,140.84h37.69L303,281.67H256l44-132.06A12.83,12.83,0,0,1,312.2,140.84Z"/><polygon class="cls-6" points="384 140.84 430.95 140.84 384 281.67 337.05 281.67 384 140.84"/><path class="cls-6" d="M465.05,140.84H512L468,272.9a12.83,12.83,0,0,1-12.18,8.77H418.11Z"/><path d="M566.35,171.18v64.7H549v-64.7Z"/><path d="M595.24,220.9l-3.65,15h-18l18.82-64.7h23l19.29,64.7H616.07l-4.12-15Zm14.3-12.77-3-11.61c-1-3.65-2.21-8.93-3.17-12.77h-.19c-1,3.84-1.92,9.12-2.88,12.77l-2.78,11.61Z"/><path d="M652.84,235.88l-20.54-64.7h19l6.92,25.44c2,7.29,3.74,14.39,5.37,22.65h.19c1.54-7.87,3.36-15.36,5.28-22.37l7-25.72H694.5l-21.12,64.7Z"/><path d="M768.9,234.15c-2.4,1.25-8.54,2.69-16.22,2.69-24.19,0-34.85-15.07-34.85-32.26,0-22.75,16.71-34.36,36-34.36,7.39,0,13.44,1.44,16.13,2.78l-3.36,13.73a31.25,31.25,0,0,0-12-2.31c-9.89,0-18.53,5.86-18.53,19,0,11.71,7,19,18.91,19a35.64,35.64,0,0,0,11.52-1.83Z"/><path d="M818.53,224.36a68.88,68.88,0,0,0,.77,11.52H803.65l-.86-4.13h-.38c-3.27,3.74-8,5.18-13.06,5.18-9.69,0-15.65-7-15.65-14.88,0-12.67,11.43-18.33,27.46-18.33v-.38c0-1.92-1.44-4-7.78-4A30,30,0,0,0,780,202.76l-3-10.85c3-1.63,9.8-4.32,19.59-4.32,16.22,0,21.88,9,21.88,20.83Zm-16.8-10.08c-7.1,0-11,1.92-11,6.14,0,3,1.92,4.51,4.89,4.51a6.45,6.45,0,0,0,5.95-4.32,10.58,10.58,0,0,0,.19-2.49Z"/><path d="M829.19,204.78c0-6.34-.19-11.72-.38-16.13H843.3l.67,5.95h.39a16.5,16.5,0,0,1,14-7c6,0,10.75,2.79,12.77,7.59h.19a19.3,19.3,0,0,1,6.53-5.67,17.83,17.83,0,0,1,8.35-1.92c10.18,0,16,7.39,16,20.54v27.75h-16.8V210.73c0-5.86-1.72-9.22-5.56-9.22a5.38,5.38,0,0,0-5.28,4,10.24,10.24,0,0,0-.48,3.46v26.88h-16.8V210.25c0-5.28-1.63-8.74-5.57-8.74a5.8,5.8,0,0,0-5.28,3.84,11.43,11.43,0,0,0-.48,3.55v27h-16.8Z"/><path d="M912.71,204.78c0-6.34-.19-11.72-.38-16.13h15l.77,6h.19c3.55-4.71,8.83-7.11,15.36-7.11,9.79,0,19.39,8.74,19.39,24.1,0,17.28-11.23,25.24-21.5,25.24-5.38,0-9.5-2.11-11.23-4.51h-.19v22.46H912.71Zm17.38,10.46a13.53,13.53,0,0,0,.28,2.88,7,7,0,0,0,6.72,5.66c5.19,0,8.36-4.41,8.36-11.23s-2.69-11.42-8.17-11.42a7.28,7.28,0,0,0-7,6,8.36,8.36,0,0,0-.19,2.21Z"/><path d="M1017.92,219.75c0,6.72.19,12.1.39,16.13h-15l-.77-6.24h-.28c-1.73,2.59-5.86,7.29-14.31,7.29-10.56,0-16.8-6.81-16.8-20.44V188.65h17.38v25c0,6.05,1.92,9.31,6.05,9.31a5.85,5.85,0,0,0,5.56-4,6.42,6.42,0,0,0,.39-2.49V188.65h17.37Z"/><path d="M1029.16,221.29a31.1,31.1,0,0,0,13,3.55c3.74,0,5.18-.77,5.18-2.59s-1.05-2.4-6.14-4c-10.46-3.26-14-8.92-13.92-14.39,0-9.41,8.07-16.23,20.54-16.23a37,37,0,0,1,14,2.69L1059.11,202a27.52,27.52,0,0,0-10.47-2.59c-3,0-4.7.77-4.7,2.69,0,1.53,1.53,2.49,7.1,4.32,9.31,3,12.87,7.87,13,14.59,0,9-7,15.84-21.6,15.84-6.62,0-12.48-1.44-16.22-3.36Z"/><path d="M1147.71,232.9a78,78,0,0,1-22.37,3.65c-12.67,0-21.31-3.17-27.16-8.74-6-5.76-9.22-14.11-9.22-23.32.1-22.56,16.9-34,37.82-34,8.74,0,15.36,1.53,18.72,3.16l-3.45,13.92c-3.65-1.63-8.07-2.78-15.36-2.78-10.66,0-19.49,5.57-19.49,18.72,0,12.09,7.78,19.1,18.34,19.1a17.73,17.73,0,0,0,5.47-.58V210.92h-8.64V197.48h25.34Z"/><path d="M1172.67,218.31c.58,3.74,6,5.86,12.19,5.86a41.57,41.57,0,0,0,12.87-1.83l2.2,11.52a48.74,48.74,0,0,1-17.66,3c-16.61,0-26-9.12-26-24.1,0-10.94,7.1-25.15,24.48-25.15,15.26,0,21.79,11.23,21.79,24.19a30.39,30.39,0,0,1-.68,6.53Zm13.92-11.71c0-2.69-1.25-7.68-6.72-7.68-5.09,0-7.1,4.7-7.39,7.68Z"/><path d="M1233.05,236.93c-14.11,0-25-8.92-25-24.28,0-15.07,9.89-25.06,26-25.06,14.79,0,24.58,10,24.58,24.19,0,17.19-12.29,25.15-25.44,25.15Zm.48-12.19c4.71,0,7.2-4.89,7.2-12.48,0-6.52-2.11-12.48-7.2-12.48-5.76,0-7.68,6.24-7.68,12.48,0,7.11,2.31,12.48,7.59,12.48Z"/><path d="M1266.85,204.78c0-6.34-.19-11.72-.39-16.13h15l.77,6h.19c3.55-4.71,8.83-7.11,15.36-7.11,9.79,0,19.39,8.74,19.39,24.1,0,17.28-11.23,25.24-21.51,25.24-5.37,0-9.5-2.11-11.23-4.51h-.19v22.46h-17.37Zm17.37,10.46a13.5,13.5,0,0,0,.29,2.88,7,7,0,0,0,6.72,5.66c5.18,0,8.35-4.41,8.35-11.23s-2.69-11.42-8.16-11.42a7.3,7.3,0,0,0-7,6,8.36,8.36,0,0,0-.19,2.21Z"/><path d="M1348.54,236.93c-14.11,0-25-8.92-25-24.28,0-15.07,9.88-25.06,26-25.06,14.78,0,24.57,10,24.57,24.19,0,17.19-12.28,25.15-25.43,25.15Zm.48-12.19c4.7,0,7.2-4.89,7.2-12.48,0-6.52-2.11-12.48-7.2-12.48-5.76,0-7.68,6.24-7.68,12.48,0,7.11,2.3,12.48,7.58,12.48Z"/><path d="M1382.33,204.58c0-7.48-.09-12-.38-15.93h14.78l.67,8.54h.39c2.49-7.2,8.44-9.6,12.57-9.6a12.85,12.85,0,0,1,3.46.29V204.1a19.22,19.22,0,0,0-4.42-.48c-5.09,0-8.54,2.12-9.5,5.95a23.79,23.79,0,0,0-.19,3v23.33h-17.38Z"/><path d="M1442,175.21v13.44h9.79v12.67H1442v13.53c0,5.57,1.24,7.88,5.47,7.88a13,13,0,0,0,4.13-.39v13.15a32.61,32.61,0,0,1-10.28,1.35c-5.08,0-9.31-1.83-11.8-4.32-2.88-2.88-4.42-7.49-4.42-14.69V201.32h-5.85V188.65h5.85v-8.83Z"/><path d="M1501.75,224.36a68.88,68.88,0,0,0,.77,11.52h-15.65l-.86-4.13h-.39c-3.26,3.74-8,5.18-13,5.18-9.7,0-15.65-7-15.65-14.88,0-12.67,11.43-18.33,27.46-18.33v-.38c0-1.92-1.44-4-7.78-4a30,30,0,0,0-13.34,3.46l-3-10.85c3-1.63,9.79-4.32,19.59-4.32,16.22,0,21.88,9,21.88,20.83ZM1485,214.28c-7.1,0-11,1.92-11,6.14,0,3,1.92,4.51,4.9,4.51a6.45,6.45,0,0,0,6-4.32,10.58,10.58,0,0,0,.19-2.49Z"/><path d="M1512.31,167.63h17.38v68.25h-17.38Z"/><path class="cls-3" d="M878.71,126.07a38.93,38.93,0,0,1,6.77-.5c3.24,0,5.58.68,7.12,2a6.83,6.83,0,0,1,2.38,5.36,7.4,7.4,0,0,1-2.05,5.47,10.81,10.81,0,0,1-7.67,2.63,9.9,9.9,0,0,1-2.16-.18V150h-4.39Zm4.39,11.27a7.43,7.43,0,0,0,2.16.21c3.31,0,5.33-1.65,5.33-4.46,0-2.66-1.87-4.1-4.93-4.1a12.23,12.23,0,0,0-2.56.21Z"/><path class="cls-3" d="M898.22,138.13c0-2.38,0-4.11-.14-5.65h3.81l.18,3.31h.11a5.25,5.25,0,0,1,4.82-3.71,4.77,4.77,0,0,1,1,.11v4.14a7.28,7.28,0,0,0-1.33-.11,3.89,3.89,0,0,0-4,3.35,7.78,7.78,0,0,0-.11,1.33V150h-4.43Z"/><path class="cls-3" d="M913.84,142.48c.11,3.17,2.6,4.54,5.4,4.54a14,14,0,0,0,4.86-.79l.65,3a15.69,15.69,0,0,1-6.12,1.12c-5.68,0-9-3.49-9-8.86,0-4.86,2.95-9.43,8.57-9.43s7.55,4.68,7.55,8.53a11.1,11.1,0,0,1-.14,1.87Zm7.71-3.09c0-1.62-.69-4.29-3.64-4.29-2.73,0-3.88,2.49-4.07,4.29Z"/><path class="cls-3" d="M929.29,137.7c0-2-.07-3.71-.14-5.22h3.78l.21,2.59h.11a6,6,0,0,1,5.4-3,5.07,5.07,0,0,1,4.86,3.24h.07a6.86,6.86,0,0,1,2.12-2.19,6.06,6.06,0,0,1,3.6-1c2.88,0,5.83,2,5.83,7.6V150h-4.31v-9.69c0-2.91-1-4.64-3.14-4.64a3.37,3.37,0,0,0-3.09,2.34,4.56,4.56,0,0,0-.22,1.48V150h-4.32V139.86c0-2.45-1-4.18-3-4.18a3.55,3.55,0,0,0-3.2,2.48,4.91,4.91,0,0,0-.22,1.48V150h-4.32Z"/><path class="cls-3" d="M962,130a2.4,2.4,0,1,1,2.52-2.38A2.34,2.34,0,0,1,962,130Zm-2.19,20V132.48h4.42V150Z"/><path class="cls-3" d="M972.16,142.48c.11,3.17,2.6,4.54,5.4,4.54a14,14,0,0,0,4.86-.79l.65,3a15.69,15.69,0,0,1-6.12,1.12c-5.69,0-9-3.49-9-8.86,0-4.86,3-9.43,8.56-9.43s7.56,4.68,7.56,8.53a11.1,11.1,0,0,1-.14,1.87Zm7.71-3.09c0-1.62-.69-4.29-3.64-4.29-2.73,0-3.89,2.49-4.07,4.29Z"/><path class="cls-3" d="M987.61,138.13c0-2.38,0-4.11-.15-5.65h3.82l.18,3.31h.11a5.23,5.23,0,0,1,4.82-3.71,4.84,4.84,0,0,1,1.05.11v4.14a7.39,7.39,0,0,0-1.34-.11,3.91,3.91,0,0,0-4,3.35,7.82,7.82,0,0,0-.1,1.33V150h-4.43Z"/><path class="cls-3" d="M1027.49,148.89a23.8,23.8,0,0,1-7.77,1.37c-4.11,0-7.24-1-9.54-3.24a12.17,12.17,0,0,1-3.38-8.93c0-7.7,5.47-12.6,13.49-12.6a16.11,16.11,0,0,1,6.45,1.16l-1,3.56a12.62,12.62,0,0,0-5.51-1c-5.18,0-8.82,3.06-8.82,8.71s3.38,8.78,8.42,8.78a9.34,9.34,0,0,0,3.35-.47v-6.08h-4.28v-3.49h8.56Z"/><path class="cls-3" d="M1035.2,142.48c.11,3.17,2.59,4.54,5.4,4.54a14.1,14.1,0,0,0,4.86-.79l.65,3a15.73,15.73,0,0,1-6.12,1.12c-5.69,0-9-3.49-9-8.86,0-4.86,3-9.43,8.57-9.43s7.56,4.68,7.56,8.53a10.86,10.86,0,0,1-.15,1.87Zm7.7-3.09c0-1.62-.68-4.29-3.63-4.29-2.74,0-3.89,2.49-4.07,4.29Zm2-14.51-4.39,5.33h-3.06l3.13-5.33Z"/><path class="cls-3" d="M1058.31,150.4c-4.93,0-8.78-3.38-8.78-9s3.78-9.29,9.07-9.29,8.71,3.67,8.71,9c0,6.44-4.54,9.32-9,9.32Zm.14-3.2c2.52,0,4.29-2.45,4.29-6,0-2.74-1.23-5.91-4.25-5.91s-4.39,3.06-4.39,6c0,3.38,1.69,5.94,4.32,5.94Z"/><path class="cls-3" d="M1071,138.31c0-2.31-.07-4.18-.15-5.83h3.89l.22,2.7h.07a6.83,6.83,0,0,1,6-3.1c4,0,7.38,3.46,7.38,8.93,0,6.33-4,9.39-8,9.39a5.73,5.73,0,0,1-4.93-2.34h-.08v9.07H1071Zm4.42,4.35a7,7,0,0,0,.11,1.23,4,4,0,0,0,3.93,3.09c2.8,0,4.46-2.34,4.46-5.79,0-3.1-1.51-5.62-4.36-5.62a4.19,4.19,0,0,0-4,3.28,6,6,0,0,0-.15,1.11Z"/><path class="cls-3" d="M1099.67,150.4c-4.93,0-8.78-3.38-8.78-9s3.78-9.29,9.07-9.29,8.71,3.67,8.71,9c0,6.44-4.53,9.32-9,9.32Zm.15-3.2c2.52,0,4.28-2.45,4.28-6,0-2.74-1.22-5.91-4.25-5.91s-4.39,3.06-4.39,6c0,3.38,1.69,5.94,4.32,5.94Z"/><path class="cls-3" d="M1112.31,138.13c0-2.38,0-4.11-.14-5.65H1116l.18,3.31h.11a5.24,5.24,0,0,1,4.82-3.71,4.77,4.77,0,0,1,1.05.11v4.14a7.36,7.36,0,0,0-1.33-.11,3.89,3.89,0,0,0-4,3.35,6.88,6.88,0,0,0-.11,1.33V150h-4.43Z"/><path class="cls-3" d="M1131,128v4.5h4.21v3.31H1131v7.7c0,2.16.58,3.24,2.27,3.24a5.51,5.51,0,0,0,1.72-.18l.08,3.35a9.8,9.8,0,0,1-3.21.47,5.07,5.07,0,0,1-3.81-1.44c-1-1-1.41-2.63-1.41-4.93v-8.21h-2.48v-3.31h2.48V129.2Z"/><path class="cls-3" d="M1152.2,145.8a24.31,24.31,0,0,0,.28,4.21h-4l-.33-1.95h-.1a6.41,6.41,0,0,1-5.19,2.34,5.2,5.2,0,0,1-5.5-5.22c0-4.39,3.92-6.66,10.4-6.62v-.29c0-1.15-.47-3.06-3.56-3.06a9.26,9.26,0,0,0-4.72,1.3l-.86-2.88a12.6,12.6,0,0,1,6.33-1.55c5.62,0,7.24,3.56,7.24,7.42Zm-4.32-4.36c-3.13,0-6.12.61-6.12,3.28a2.33,2.33,0,0,0,2.52,2.52,3.64,3.64,0,0,0,3.49-2.42,2.9,2.9,0,0,0,.11-1Z"/><path class="cls-3" d="M1159.07,130a2.4,2.4,0,1,1,2.52-2.38,2.34,2.34,0,0,1-2.52,2.38Zm-2.19,20V132.48h4.42V150Z"/><path class="cls-3" d="M1166.09,124.41h4.43V150h-4.43Z"/><path class="cls-3" d="M1187.37,125.75v14.14c0,4.75,2,7,5,7,3.2,0,5.11-2.2,5.11-7V125.75h4.42V139.6c0,7.49-3.85,10.8-9.68,10.8-5.61,0-9.25-3.13-9.25-10.76V125.75Z"/><path class="cls-3" d="M1206.77,137.7c0-2-.07-3.71-.14-5.22h3.85l.22,2.62h.1a6.46,6.46,0,0,1,5.62-3c3.06,0,6.23,2,6.23,7.52V150h-4.43v-9.9c0-2.52-.94-4.43-3.35-4.43a3.7,3.7,0,0,0-3.45,2.59,4,4,0,0,0-.22,1.41V150h-4.43Z"/><path class="cls-3" d="M1229.56,130a2.4,2.4,0,1,1,2.52-2.38,2.35,2.35,0,0,1-2.52,2.38Zm-2.2,20V132.48h4.43V150Z"/><path class="cls-3" d="M1239.39,132.48l2.84,8.89c.51,1.55.86,2.95,1.19,4.39h.11c.32-1.44.72-2.81,1.18-4.39l2.81-8.89h4.65l-6.7,17.53h-4.35l-6.52-17.53Z"/><path class="cls-3" d="M1257.53,142.48c.11,3.17,2.59,4.54,5.4,4.54a14.1,14.1,0,0,0,4.86-.79l.65,3a15.69,15.69,0,0,1-6.12,1.12c-5.69,0-9-3.49-9-8.86,0-4.86,3-9.43,8.57-9.43s7.56,4.68,7.56,8.53a11.1,11.1,0,0,1-.14,1.87Zm7.7-3.09c0-1.62-.68-4.29-3.63-4.29-2.74,0-3.89,2.49-4.07,4.29Z"/><path class="cls-3" d="M1273,138.13c0-2.38,0-4.11-.15-5.65h3.82l.18,3.31h.1a5.26,5.26,0,0,1,4.83-3.71,4.74,4.74,0,0,1,1,.11v4.14a7.2,7.2,0,0,0-1.33-.11,3.9,3.9,0,0,0-4,3.35,7.78,7.78,0,0,0-.11,1.33V150H1273Z"/><path class="cls-3" d="M1285.61,145.9a9.5,9.5,0,0,0,4.46,1.3c2,0,2.81-.83,2.81-2s-.72-1.76-2.88-2.56c-3.42-1.15-4.82-3-4.82-5.11,0-3.09,2.55-5.47,6.62-5.47a10,10,0,0,1,4.68,1l-.9,3.09a7.77,7.77,0,0,0-3.71-1c-1.58,0-2.44.79-2.44,1.87s.82,1.62,3.06,2.45c3.2,1.12,4.64,2.74,4.68,5.33,0,3.2-2.49,5.51-7.13,5.51a11.31,11.31,0,0,1-5.33-1.23Z"/><path class="cls-3" d="M1303,130a2.4,2.4,0,1,1,2.52-2.38A2.35,2.35,0,0,1,1303,130Zm-2.2,20V132.48h4.43V150Z"/><path class="cls-3" d="M1315.09,128v4.5h4.21v3.31h-4.21v7.7c0,2.16.58,3.24,2.27,3.24a5.58,5.58,0,0,0,1.73-.18l.07,3.35a9.73,9.73,0,0,1-3.2.47,5.08,5.08,0,0,1-3.82-1.44c-1-1-1.4-2.63-1.4-4.93v-8.21h-2.49v-3.31h2.49V129.2Z"/><path class="cls-3" d="M1336.26,145.8a23.26,23.26,0,0,0,.29,4.21h-4l-.32-1.95h-.11a6.39,6.39,0,0,1-5.18,2.34,5.2,5.2,0,0,1-5.51-5.22c0-4.39,3.92-6.66,10.4-6.62v-.29c0-1.15-.46-3.06-3.56-3.06a9.26,9.26,0,0,0-4.72,1.3l-.86-2.88a12.65,12.65,0,0,1,6.34-1.55c5.61,0,7.23,3.56,7.23,7.42Zm-4.32-4.36c-3.13,0-6.12.61-6.12,3.28a2.33,2.33,0,0,0,2.52,2.52,3.64,3.64,0,0,0,3.49-2.42,2.9,2.9,0,0,0,.11-1Z"/><path class="cls-3" d="M1343.14,130a2.4,2.4,0,1,1,2.52-2.38,2.35,2.35,0,0,1-2.52,2.38Zm-2.2,20V132.48h4.43V150Z"/><path class="cls-3" d="M1350.16,138.13c0-2.38,0-4.11-.15-5.65h3.82l.18,3.31h.11a5.23,5.23,0,0,1,4.82-3.71,4.67,4.67,0,0,1,1,.11v4.14a7.2,7.2,0,0,0-1.33-.11,3.91,3.91,0,0,0-4,3.35,7.82,7.82,0,0,0-.1,1.33V150h-4.43Z"/><path class="cls-3" d="M1365.78,142.48c.11,3.17,2.59,4.54,5.4,4.54a14.1,14.1,0,0,0,4.86-.79l.65,3a15.69,15.69,0,0,1-6.12,1.12c-5.69,0-9-3.49-9-8.86,0-4.86,3-9.43,8.57-9.43s7.56,4.68,7.56,8.53a11.1,11.1,0,0,1-.14,1.87Zm7.7-3.09c0-1.62-.68-4.29-3.63-4.29-2.74,0-3.89,2.49-4.07,4.29Z"/><path class="cls-3" d="M1402.28,145.8a24.21,24.21,0,0,0,.29,4.21h-4l-.33-1.95h-.11a6.39,6.39,0,0,1-5.18,2.34,5.2,5.2,0,0,1-5.51-5.22c0-4.39,3.93-6.66,10.41-6.62v-.29c0-1.15-.47-3.06-3.57-3.06a9.25,9.25,0,0,0-4.71,1.3l-.87-2.88a12.68,12.68,0,0,1,6.34-1.55c5.61,0,7.23,3.56,7.23,7.42Zm-4.32-4.36c-3.13,0-6.12.61-6.12,3.28a2.33,2.33,0,0,0,2.52,2.52,3.66,3.66,0,0,0,3.5-2.42,3.17,3.17,0,0,0,.1-1Z"/><path class="cls-3" d="M1422.66,144.75c0,2.09.07,3.82.14,5.26H1419l-.21-2.63h-.11a6.44,6.44,0,0,1-5.65,3c-3.17,0-6.09-1.9-6.09-7.63V132.48h4.43V142c0,2.91.94,4.78,3.28,4.78a3.59,3.59,0,0,0,3.38-2.37,3.22,3.22,0,0,0,.25-1.37V132.48h4.43Z"/><path class="cls-3" d="M1455.56,140.11c-.14-3.13-.32-6.88-.29-10.19h-.1c-.8,3-1.8,6.23-2.88,9.29l-3.57,10.51h-3.38l-3.24-10.37c-.94-3.09-1.8-6.41-2.45-9.43h-.07c-.11,3.17-.25,7-.43,10.33l-.54,9.76h-4.14l1.62-24.26h5.83l3.17,9.75c.86,2.84,1.62,5.72,2.23,8.42h.11c.64-2.62,1.47-5.61,2.41-8.46l3.35-9.71H1459l1.4,24.26H1456Z"/><path class="cls-3" d="M1478.42,145.8a23.26,23.26,0,0,0,.29,4.21h-4l-.32-1.95h-.11a6.39,6.39,0,0,1-5.18,2.34,5.2,5.2,0,0,1-5.51-5.22c0-4.39,3.93-6.66,10.41-6.62v-.29c0-1.15-.47-3.06-3.57-3.06a9.2,9.2,0,0,0-4.71,1.3l-.87-2.88a12.68,12.68,0,0,1,6.34-1.55c5.61,0,7.23,3.56,7.23,7.42Zm-4.32-4.36c-3.13,0-6.12.61-6.12,3.28a2.33,2.33,0,0,0,2.52,2.52,3.66,3.66,0,0,0,3.5-2.42,3.17,3.17,0,0,0,.1-1Z"/><path class="cls-3" d="M1483.1,138.13c0-2.38,0-4.11-.14-5.65h3.82l.18,3.31h.1a5.26,5.26,0,0,1,4.83-3.71,4.74,4.74,0,0,1,1,.11v4.14a7.2,7.2,0,0,0-1.33-.11,3.9,3.9,0,0,0-4,3.35,7.78,7.78,0,0,0-.11,1.33V150h-4.43Z"/><path class="cls-3" d="M1503.26,150.4c-4.93,0-8.78-3.38-8.78-9s3.78-9.29,9.07-9.29,8.71,3.67,8.71,9c0,6.44-4.53,9.32-9,9.32Zm.15-3.2c2.52,0,4.28-2.45,4.28-6,0-2.74-1.22-5.91-4.25-5.91s-4.39,3.06-4.39,6c0,3.38,1.69,5.94,4.32,5.94Z"/><path class="cls-3" d="M1528.79,149.47a12.91,12.91,0,0,1-5,.9c-5.47,0-9-3.53-9-9,0-5.25,3.6-9.32,9.76-9.32a11.84,11.84,0,0,1,4.28.79l-.79,3.35a7.29,7.29,0,0,0-3.35-.68c-3.38,0-5.4,2.48-5.36,5.68,0,3.6,2.34,5.66,5.36,5.66a8.77,8.77,0,0,0,3.49-.69Z"/></svg>