<?xml version="1.0" encoding="utf-8"?>
<!-- Generator: Adobe Illustrator 25.2.0, SVG Export Plug-In . SVG Version: 6.00 Build 0)  -->
<svg version="1.1" id="Layer_1" xmlns="http://www.w3.org/2000/svg" xmlns:xlink="http://www.w3.org/1999/xlink" x="0px" y="0px"
	 viewBox="0 0 19.9 20" style="enable-background:new 0 0 19.9 20;" xml:space="preserve">
<style type="text/css">
	.st0{fill:#FFFFFF;enable-background:new    ;}
</style>
<path id="iconmonstr-magnifier-2" class="st0" d="M19.9,18.1l-5.2-5.2c2.6-3.6,1.8-8.7-1.8-11.3S4.2-0.3,1.5,3.4s-1.8,8.7,1.8,11.3
	c2.8,2,6.5,2.1,9.4,0.1l5.2,5.2L19.9,18.1L19.9,18.1z M2.4,8.1c0-3.2,2.6-5.7,5.7-5.7s5.7,2.6,5.7,5.7s-2.6,5.7-5.7,5.7c0,0,0,0,0,0
	C5,13.9,2.4,11.3,2.4,8.1z"/>
</svg>
