<?xml version="1.0" encoding="utf-8"?>
<!-- Generator: Adobe Illustrator 25.2.0, SVG Export Plug-In . SVG Version: 6.00 Build 0)  -->
<svg version="1.1" id="Layer_1" xmlns="http://www.w3.org/2000/svg" xmlns:xlink="http://www.w3.org/1999/xlink" x="0px" y="0px"
	 viewBox="0 0 19.9 20" style="enable-background:new 0 0 19.9 20;" xml:space="preserve">
<style type="text/css">
	.st0{fill:#FFFFFF;enable-background:new    ;}
</style>
<path id="Union_4" class="st0" d="M12.7,14.8C9,17.4,4,16.4,1.4,12.7S-0.2,4,3.5,1.4s8.8-1.6,11.3,2.1c1.9,2.8,1.9,6.6-0.1,9.4
	l5.2,5.2l-2,2L12.7,14.8z M2.4,8.1c0,3.2,2.6,5.7,5.7,5.7s5.7-2.6,5.7-5.7s-2.6-5.7-5.7-5.7c0,0,0,0,0,0C5,2.4,2.4,5,2.4,8.1z
	 M19.9,18.1L19.9,18.1L19.9,18.1z M8.2,8.9l-1.9,1.9l-0.5-0.5l1.9-1.9L5.9,6.6l0.5-0.5L8.2,8l1.9-1.9l0.5,0.5L8.7,8.4l1.9,1.9
	l-0.5,0.5L8.2,8.9z"/>
</svg>
